<svg xmlns="http://www.w3.org/2000/svg" viewBox="0 0 512 512">
  <defs>
    <linearGradient id="bananaGrad" x1="0%" y1="0%" x2="100%" y2="100%">
      <stop offset="0%" style="stop-color:#fde047;stop-opacity:1" />
      <stop offset="100%" style="stop-color:#f59e0b;stop-opacity:1" />
    </linearGradient>
    <linearGradient id="penGrad" x1="0%" y1="0%" x2="100%" y2="100%">
      <stop offset="0%" style="stop-color:#60a5fa;stop-opacity:1" />
      <stop offset="100%" style="stop-color:#2563eb;stop-opacity:1" />
    </linearGradient>
  </defs>
  
  <!-- Background: Dark Zinc -->
  <rect width="512" height="512" fill="#18181b"/>
  
  <!-- Banana -->
  <path fill="url(#bananaGrad)" d="M160 380c-40-40-60-100-40-160 10-30 30-60 60-80 10-6 20-10 20-20 0-10-5-20-5-30 0-10 5-20 15-20s20 10 25 20c5 10 0 20 0 30 0 10 5 20 10 25 30 15 80 20 120 0 40-20 70-60 80-100 5-20 20-30 40-20s30 30 20 50c-20 40-60 90-120 120-60 30-120 10-140-10-10-10-20-10-25-5s-5 15 5 25c40 40 100 60 160 40 60-20 100-70 110-130 5-20 25-30 45-25s30 25 25 45c-20 80-80 150-160 170-80 20-150-20-180-50z"/>
  <!-- Banana Highlight/Shine -->
  <path fill="#ffffff" opacity="0.4" d="M170 340c-20-20-30-50-20-80 5-15 15-30 30-40 2-1 4-2 6-2s4 1 5 3c2 3 1 7-2 9-10 6-18 18-22 30-6 20 0 40 15 55 2 2 3 5 1 8-2 2-5 3-8 1-2-1-4-2-5-4z"/>

  <!-- Pen -->
  <g transform="rotate(-45, 256, 256)">
    <!-- Pen Body -->
    <rect x="236" y="100" width="40" height="260" rx="8" fill="url(#penGrad)" stroke="#1e3a8a" stroke-width="4"/>
    <!-- Pen Cap/Clip -->
    <rect x="230" y="80" width="52" height="60" rx="4" fill="#1e40af"/>
    <rect x="250" y="80" width="12" height="40" rx="2" fill="#60a5fa"/>
    <!-- Pen Tip -->
    <path d="M236 360 L256 410 L276 360 Z" fill="#facc15" stroke="#1e3a8a" stroke-width="4"/>
    <path d="M256 410 L256 410" stroke="#1e3a8a" stroke-width="4" stroke-linecap="round"/>
  </g>
</svg>